<?xml version="1.0" encoding="utf-8"?>
<!-- Generator: Adobe Illustrator 16.0.0, SVG Export Plug-In . SVG Version: 6.00 Build 0)  -->
<!DOCTYPE svg PUBLIC "-//W3C//DTD SVG 1.1//EN" "http://www.w3.org/Graphics/SVG/1.1/DTD/svg11.dtd">
<svg version="1.1" id="Layer_1" xmlns="http://www.w3.org/2000/svg" xmlns:xlink="http://www.w3.org/1999/xlink" x="0px" y="0px"
	 width="150px" height="50px" viewBox="0 0 150 50" enable-background="new 0 0 150 50" xml:space="preserve">
<g>
	<g>
		
			<text transform="matrix(0.9512 0 0 1 59.4844 33.251)" fill="#231F20" font-family="'ClementePDaa-Hairline'" font-size="29.5391" letter-spacing="2.103">Bloom</text>
	</g>
	
		<text transform="matrix(0.9512 0 0 1 61.5957 41.9063)" fill="#231F20" font-family="'ClementePDad-ExtraLightItalic'" font-size="7.4737" letter-spacing="1.051">Speak up. Be heard</text>
	<g>
		<path fill="#EB008B" d="M23.575,13.412c-1.516,2.883-2.233,6.083-2.193,9.253c-2.722-1.601-5.827-2.357-8.958-2.112
			c-0.011-0.794,0.027-1.601,0.115-2.412c0.265-2.466,0.973-4.76,2.017-6.79c1.053-0.091,2.129-0.073,3.22,0.067
			C19.87,11.69,21.822,12.382,23.575,13.412z"/>
		<polygon fill="none" points="30.127,38.294 30.127,38.297 30.124,38.299 30.124,38.303 30.113,38.303 30.121,38.297 		"/>
		<path fill="#8BC53F" d="M30.113,38.303c-0.863,0.661-1.793,1.24-2.792,1.726c-8.295,4.01-18.02-0.149-21.719-9.296
			c-0.919-2.268-1.378-4.638-1.426-6.968c0.865-0.664,1.8-1.246,2.805-1.731c1.772-0.86,3.613-1.341,5.442-1.481
			c0.106,8.936,6.209,16.607,14.481,17.68C27.992,38.373,29.063,38.39,30.113,38.303z"/>
		<path fill="#D91C5C" d="M30.121,38.297c-0.003,0.002-0.006,0.006-0.008,0.006c-1.05,0.087-2.121,0.07-3.208-0.07
			c-8.272-1.072-14.375-8.744-14.481-17.68c3.131-0.245,6.236,0.512,8.958,2.112c0.062,5.155,2.127,10.227,6.057,13.702
			C28.291,37.117,29.188,37.763,30.121,38.297z"/>
		<path fill="#EB008B" d="M47.457,20.356c-3.061-0.169-6.021,0.593-8.597,2.092c0.023-3.286-0.771-6.554-2.343-9.412
			c0.662-0.383,1.354-0.725,2.078-1.013c2.131-0.86,4.321-1.21,6.452-1.11c0.55,0.983,1.023,2.042,1.403,3.169
			C47.147,16.151,47.468,18.271,47.457,20.356z"/>
		<polygon fill="none" points="30.127,38.294 30.131,38.285 30.131,38.297 30.127,38.297 		"/>
		<path fill="#D91C5C" d="M29.904,20.036c-1.456,2.781-2.232,5.97-2.185,9.228c-1.572-2.855-3.787-5.099-6.338-6.599
			c-0.04-3.17,0.678-6.37,2.193-9.253C26.208,14.957,28.391,17.264,29.904,20.036z"/>
		<path fill="#EB008B" d="M36.518,13.036c-2.836,1.644-5.096,4.103-6.613,7c-1.514-2.771-3.696-5.079-6.329-6.624
			c0.438-0.835,0.942-1.644,1.514-2.418c1.43-1.93,3.145-3.461,5.019-4.567c0.938,0.538,1.838,1.18,2.692,1.936
			C34.322,9.71,35.564,11.298,36.518,13.036z"/>
		<path fill="#D91C5C" d="M38.86,22.448c-2.735,1.584-5.045,4-6.603,6.996c0.019-3.404-0.834-6.64-2.354-9.408
			c1.518-2.897,3.777-5.356,6.613-7C38.09,15.894,38.884,19.162,38.86,22.448z"/>
		<path fill="#BE1E2D" d="M32.258,29.443v0.003c-0.844,1.624-1.467,3.42-1.814,5.35c-0.213,1.174-0.313,2.339-0.313,3.489
			c0,0.003-0.002,0.006-0.004,0.009c-0.046-2.33-0.509-4.697-1.428-6.968c-0.29-0.721-0.619-1.404-0.979-2.063
			c-0.048-3.258,0.729-6.447,2.185-9.228C31.424,22.803,32.276,26.039,32.258,29.443z"/>
		<path fill="#BE1E2D" d="M30.127,38.294c-0.003,0-0.003,0.003-0.006,0.003c-0.933-0.534-1.83-1.18-2.683-1.93
			c-3.93-3.476-5.995-8.547-6.057-13.702c2.551,1.5,4.766,3.743,6.338,6.599c0.03,1.95,0.355,3.928,1.004,5.864
			C29.104,36.254,29.576,37.309,30.127,38.294z"/>
		<path fill="#EB008B" d="M30.127,38.294c-0.551-0.985-1.023-2.04-1.403-3.166c-0.648-1.937-0.974-3.914-1.004-5.864
			c0.36,0.658,0.689,1.342,0.979,2.063C29.618,33.597,30.081,35.964,30.127,38.294z"/>
		<polygon fill="none" points="30.138,38.297 30.131,38.299 30.131,38.303 30.129,38.303 30.124,38.299 30.121,38.297 
			30.127,38.294 30.131,38.285 30.131,38.297 		"/>
		<path fill="#D91C5C" d="M47.457,20.356c-0.046,7.292-4.204,14.148-10.878,16.833c-2.128,0.857-4.314,1.206-6.441,1.108
			c1.874-1.108,3.586-2.635,5.013-4.562c2.466-3.329,3.68-7.322,3.71-11.288C41.437,20.949,44.396,20.187,47.457,20.356z"/>
		<path fill="#8BC53F" d="M55.905,23.402c0.002,1.153-0.099,2.325-0.31,3.503c-1.755,9.733-10.453,16.054-19.426,14.118
			c-2.227-0.481-4.265-1.424-6.039-2.721v-0.004c0.004,0,0.004,0,0.007-0.002c2.127,0.098,4.313-0.251,6.441-1.108
			c6.674-2.685,10.832-9.54,10.878-16.833c0.799,0.044,1.605,0.149,2.412,0.325C52.097,21.16,54.134,22.107,55.905,23.402z"/>
		<path fill="#BE1E2D" d="M38.86,22.448c-0.03,3.965-1.244,7.958-3.71,11.288c-1.427,1.927-3.139,3.453-5.013,4.562
			c-0.003,0-0.003,0-0.007,0v-0.012c1.042-2.025,1.742-4.316,2.012-6.776c0.075-0.691,0.115-1.378,0.115-2.063v-0.003
			C33.815,26.447,36.125,24.032,38.86,22.448z"/>
		<polygon fill="none" points="30.131,38.297 30.138,38.297 30.131,38.299 		"/>
		<path fill="#EB008B" d="M32.258,29.446c0,0.685-0.04,1.371-0.115,2.063c-0.27,2.46-0.97,4.751-2.012,6.776
			c0-1.15,0.1-2.315,0.313-3.489C30.791,32.866,31.414,31.07,32.258,29.446z"/>
		<path fill="#D91C5C" d="M30.046,26.133c0,0,2.055,3.826,0.085,12.152C30.131,38.285,27.79,31.302,30.046,26.133z"/>
	</g>
</g>
</svg>
